<svg xmlns="http://www.w3.org/2000/svg" width="350" height="103.586" viewBox="0 0 350 103.586">
    <path fill="#1e9ae4" d="M3859.66 884.417c-69.113 37.737-144.162 69.163-223.407 75.654a339.953 339.953 0 0 1-57 .026c-18.943-1.636-39.48-5.683-53.306-19.824-13.2-13.507-17.072-33.5-5.219-49.14 9.819-12.95 26.034-20.395 41.161-25.123 18.932-5.915 43.371-7.437 54.63 12.443 8.945 15.794 5.887 36.326 2.736 53.288a1.065 1.065 0 0 0 1.013 1.33c17.733.3 26.85-18.689 40.109-27.257a22.291 22.291 0 0 1 12.505-3.98c6.74.114 12.76 4.3 19.5 4.264 6.777-.029 14.9-6.314 11.272-13.552-.523-1.045-2.381-.294-1.92.811 5.841 13.9 23.162 21.689 37.243 15.309 14.051-6.369 19.634-24.6 12.988-38.114a1.058 1.058 0 0 0-1.651-.215c-18.845 19.157-13.928 51.554 3.821 69.739 22.633 23.189 60.226 21.27 87.838 9.4 1.237-.533.169-2.344-1.062-1.817-26.407 11.357-62.212 13.359-84.342-8.124-17.713-17.192-23.143-49.036-4.768-67.715l-1.65-.213c6.116 12.44.848 29.226-12 35.1-12.814 5.861-29.024-1.132-34.39-13.91q-.962.4-1.919.811c2.179 4.352-1.981 8.5-5.834 9.789-3.089 1.038-6.351.419-9.417-.412-4.535-1.231-8.943-3.152-13.711-3.251-6.324-.128-11.971 2.8-16.826 6.623-10.918 8.594-20.263 24.877-35.789 24.615.335.443.676.886 1.011 1.329 2.912-15.66 5.407-33.066-.047-48.466-5.423-15.316-19.175-23.914-35.193-24.05-17.191-.144-35.607 6.507-50.144 15.437-13.075 8.03-24.667 20.556-24.658 36.78.01 17.383 12.549 32.448 27.4 40.135 17.724 9.179 38.725 10.485 58.313 11.08 43.288 1.3 86.473-5.854 127.859-18.254 47.4-14.2 92.555-35.056 135.914-58.732 1.186-.647.128-2.463-1.062-1.814z" transform="translate(-3511.24 -859.782)"/>
</svg>
